<mxfile host="app.diagrams.net" modified="2022-05-12T14:05:19.701Z" agent="5.0 (Windows NT 10.0; Win64; x64) AppleWebKit/537.36 (KHTML, like Gecko) Chrome/100.0.4896.60 Safari/537.36" etag="hecEUKEnwXOFxbvDYaDf" version="18.0.2" type="github">
  <diagram id="qcw5w06dxHw6riU8rMZ6" name="第 1 页">
    <mxGraphModel dx="985" dy="513" grid="0" gridSize="10" guides="1" tooltips="1" connect="1" arrows="1" fold="1" page="1" pageScale="1" pageWidth="827" pageHeight="1169" math="0" shadow="0">
      <root>
        <mxCell id="0" />
        <mxCell id="1" parent="0" />
        <mxCell id="fodWNSY7NhRpLWuz4Wl4-1" value="操作间&lt;br&gt;依赖模型" style="sketch=0;pointerEvents=1;shadow=0;dashed=0;html=1;strokeColor=none;fillColor=#434445;aspect=fixed;labelPosition=center;verticalLabelPosition=bottom;verticalAlign=top;align=center;outlineConnect=0;shape=mxgraph.vvd.nsx_controller;" vertex="1" parent="1">
          <mxGeometry x="156" y="173" width="50" height="50" as="geometry" />
        </mxCell>
        <mxCell id="fodWNSY7NhRpLWuz4Wl4-2" value="操作序列" style="sketch=0;pointerEvents=1;shadow=0;dashed=0;html=1;strokeColor=none;fillColor=#434445;aspect=fixed;labelPosition=center;verticalLabelPosition=bottom;verticalAlign=top;align=center;outlineConnect=0;shape=mxgraph.vvd.edge_gateway;" vertex="1" parent="1">
          <mxGeometry x="154" y="397" width="50" height="42.5" as="geometry" />
        </mxCell>
        <mxCell id="fodWNSY7NhRpLWuz4Wl4-9" value="" style="edgeStyle=orthogonalEdgeStyle;rounded=0;orthogonalLoop=1;jettySize=auto;html=1;" edge="1" parent="1" source="fodWNSY7NhRpLWuz4Wl4-4" target="fodWNSY7NhRpLWuz4Wl4-6">
          <mxGeometry relative="1" as="geometry" />
        </mxCell>
        <mxCell id="fodWNSY7NhRpLWuz4Wl4-4" value="初始化操作序列集" style="rounded=0;whiteSpace=wrap;html=1;fontSize=18;" vertex="1" parent="1">
          <mxGeometry x="394" y="154" width="221" height="53" as="geometry" />
        </mxCell>
        <mxCell id="fodWNSY7NhRpLWuz4Wl4-10" value="" style="edgeStyle=orthogonalEdgeStyle;rounded=0;orthogonalLoop=1;jettySize=auto;html=1;entryX=0.5;entryY=0;entryDx=0;entryDy=0;" edge="1" parent="1" source="fodWNSY7NhRpLWuz4Wl4-6" target="fodWNSY7NhRpLWuz4Wl4-7">
          <mxGeometry relative="1" as="geometry" />
        </mxCell>
        <mxCell id="fodWNSY7NhRpLWuz4Wl4-6" value="从操作序列中随机选择一个" style="rounded=0;whiteSpace=wrap;html=1;fontSize=18;" vertex="1" parent="1">
          <mxGeometry x="394" y="242" width="221" height="53" as="geometry" />
        </mxCell>
        <mxCell id="fodWNSY7NhRpLWuz4Wl4-11" value="" style="edgeStyle=orthogonalEdgeStyle;rounded=0;orthogonalLoop=1;jettySize=auto;html=1;" edge="1" parent="1" source="fodWNSY7NhRpLWuz4Wl4-7" target="fodWNSY7NhRpLWuz4Wl4-8">
          <mxGeometry relative="1" as="geometry" />
        </mxCell>
        <mxCell id="fodWNSY7NhRpLWuz4Wl4-7" value="根据操作间依赖模型确定候选操作集" style="rounded=0;whiteSpace=wrap;html=1;fontSize=18;" vertex="1" parent="1">
          <mxGeometry x="394" y="330" width="221" height="53" as="geometry" />
        </mxCell>
        <mxCell id="fodWNSY7NhRpLWuz4Wl4-13" value="" style="edgeStyle=orthogonalEdgeStyle;rounded=0;orthogonalLoop=1;jettySize=auto;html=1;" edge="1" parent="1" source="fodWNSY7NhRpLWuz4Wl4-8" target="fodWNSY7NhRpLWuz4Wl4-12">
          <mxGeometry relative="1" as="geometry" />
        </mxCell>
        <mxCell id="fodWNSY7NhRpLWuz4Wl4-8" value="从候选操作集随机选择一个，形成新序列" style="rounded=0;whiteSpace=wrap;html=1;fontSize=18;" vertex="1" parent="1">
          <mxGeometry x="394" y="411" width="221" height="53" as="geometry" />
        </mxCell>
        <mxCell id="fodWNSY7NhRpLWuz4Wl4-17" value="是" style="edgeStyle=orthogonalEdgeStyle;rounded=0;orthogonalLoop=1;jettySize=auto;html=1;fontSize=15;" edge="1" parent="1" source="fodWNSY7NhRpLWuz4Wl4-12" target="fodWNSY7NhRpLWuz4Wl4-16">
          <mxGeometry relative="1" as="geometry" />
        </mxCell>
        <mxCell id="fodWNSY7NhRpLWuz4Wl4-20" value="否" style="edgeStyle=orthogonalEdgeStyle;rounded=0;orthogonalLoop=1;jettySize=auto;html=1;entryX=1;entryY=0.5;entryDx=0;entryDy=0;exitX=0.969;exitY=0.448;exitDx=0;exitDy=0;exitPerimeter=0;fontSize=15;" edge="1" parent="1" source="fodWNSY7NhRpLWuz4Wl4-12" target="fodWNSY7NhRpLWuz4Wl4-6">
          <mxGeometry relative="1" as="geometry">
            <Array as="points">
              <mxPoint x="591" y="529" />
              <mxPoint x="644" y="529" />
              <mxPoint x="644" y="269" />
            </Array>
          </mxGeometry>
        </mxCell>
        <mxCell id="fodWNSY7NhRpLWuz4Wl4-12" value="超过运行时限？" style="rhombus;whiteSpace=wrap;html=1;rounded=0;fontSize=17;" vertex="1" parent="1">
          <mxGeometry x="412.25" y="495" width="184.5" height="67" as="geometry" />
        </mxCell>
        <mxCell id="fodWNSY7NhRpLWuz4Wl4-16" value="结束" style="rounded=1;whiteSpace=wrap;html=1;fontSize=18;" vertex="1" parent="1">
          <mxGeometry x="444.5" y="609" width="115.5" height="40" as="geometry" />
        </mxCell>
        <mxCell id="fodWNSY7NhRpLWuz4Wl4-19" value="" style="edgeStyle=orthogonalEdgeStyle;rounded=0;orthogonalLoop=1;jettySize=auto;html=1;" edge="1" parent="1" source="fodWNSY7NhRpLWuz4Wl4-18" target="fodWNSY7NhRpLWuz4Wl4-4">
          <mxGeometry relative="1" as="geometry" />
        </mxCell>
        <mxCell id="fodWNSY7NhRpLWuz4Wl4-18" value="开始" style="rounded=1;whiteSpace=wrap;html=1;fontSize=18;" vertex="1" parent="1">
          <mxGeometry x="444.5" y="85" width="118.5" height="40" as="geometry" />
        </mxCell>
        <mxCell id="fodWNSY7NhRpLWuz4Wl4-21" value="操作" style="rounded=1;whiteSpace=wrap;html=1;fontSize=15;" vertex="1" parent="1">
          <mxGeometry x="165" y="1746" width="55" height="40" as="geometry" />
        </mxCell>
        <mxCell id="fodWNSY7NhRpLWuz4Wl4-22" value="" style="shape=flexArrow;endArrow=classic;html=1;rounded=0;fontSize=15;" edge="1" parent="1">
          <mxGeometry width="50" height="50" relative="1" as="geometry">
            <mxPoint x="212.25" y="1765.5" as="sourcePoint" />
            <mxPoint x="246" y="1766" as="targetPoint" />
          </mxGeometry>
        </mxCell>
        <mxCell id="fodWNSY7NhRpLWuz4Wl4-30" value="" style="edgeStyle=orthogonalEdgeStyle;rounded=0;orthogonalLoop=1;jettySize=auto;html=1;fontSize=15;" edge="1" parent="1" source="fodWNSY7NhRpLWuz4Wl4-23" target="fodWNSY7NhRpLWuz4Wl4-27">
          <mxGeometry relative="1" as="geometry" />
        </mxCell>
        <mxCell id="fodWNSY7NhRpLWuz4Wl4-23" value="状态码断言" style="rounded=0;whiteSpace=wrap;html=1;fontSize=15;" vertex="1" parent="1">
          <mxGeometry x="248" y="1745" width="116" height="42" as="geometry" />
        </mxCell>
        <mxCell id="fodWNSY7NhRpLWuz4Wl4-26" value="Key Value&lt;br&gt;断言" style="rounded=0;whiteSpace=wrap;html=1;fontSize=15;" vertex="1" parent="1">
          <mxGeometry x="249" y="1876" width="115" height="42" as="geometry" />
        </mxCell>
        <mxCell id="fodWNSY7NhRpLWuz4Wl4-31" value="" style="edgeStyle=orthogonalEdgeStyle;rounded=0;orthogonalLoop=1;jettySize=auto;html=1;fontSize=15;" edge="1" parent="1" source="fodWNSY7NhRpLWuz4Wl4-27" target="fodWNSY7NhRpLWuz4Wl4-26">
          <mxGeometry relative="1" as="geometry" />
        </mxCell>
        <mxCell id="fodWNSY7NhRpLWuz4Wl4-27" value="JSON Schema&lt;br&gt;断言" style="rounded=0;whiteSpace=wrap;html=1;fontSize=15;" vertex="1" parent="1">
          <mxGeometry x="249" y="1811" width="115" height="42" as="geometry" />
        </mxCell>
        <mxCell id="fodWNSY7NhRpLWuz4Wl4-37" value="" style="edgeStyle=orthogonalEdgeStyle;rounded=0;orthogonalLoop=1;jettySize=auto;html=1;fontSize=15;" edge="1" parent="1" source="fodWNSY7NhRpLWuz4Wl4-32" target="fodWNSY7NhRpLWuz4Wl4-35">
          <mxGeometry relative="1" as="geometry" />
        </mxCell>
        <mxCell id="fodWNSY7NhRpLWuz4Wl4-32" value="参数间&lt;br&gt;依赖模型" style="sketch=0;pointerEvents=1;shadow=0;dashed=0;html=1;strokeColor=none;fillColor=#434445;aspect=fixed;labelPosition=center;verticalLabelPosition=bottom;verticalAlign=top;align=center;outlineConnect=0;shape=mxgraph.vvd.site_container;fontSize=15;" vertex="1" parent="1">
          <mxGeometry x="224" y="740" width="49.5" height="50" as="geometry" />
        </mxCell>
        <mxCell id="fodWNSY7NhRpLWuz4Wl4-39" value="" style="edgeStyle=orthogonalEdgeStyle;rounded=0;orthogonalLoop=1;jettySize=auto;html=1;fontSize=15;" edge="1" parent="1" source="fodWNSY7NhRpLWuz4Wl4-33" target="fodWNSY7NhRpLWuz4Wl4-36">
          <mxGeometry relative="1" as="geometry" />
        </mxCell>
        <mxCell id="fodWNSY7NhRpLWuz4Wl4-33" value="参数组合" style="sketch=0;pointerEvents=1;shadow=0;dashed=0;html=1;strokeColor=none;fillColor=#434445;aspect=fixed;labelPosition=center;verticalLabelPosition=bottom;verticalAlign=top;align=center;outlineConnect=0;shape=mxgraph.vvd.logical_firewall;fontSize=15;" vertex="1" parent="1">
          <mxGeometry x="340.5" y="859" width="48.5" height="50" as="geometry" />
        </mxCell>
        <mxCell id="fodWNSY7NhRpLWuz4Wl4-38" value="" style="edgeStyle=orthogonalEdgeStyle;rounded=0;orthogonalLoop=1;jettySize=auto;html=1;fontSize=15;" edge="1" parent="1" source="fodWNSY7NhRpLWuz4Wl4-35" target="fodWNSY7NhRpLWuz4Wl4-33">
          <mxGeometry relative="1" as="geometry" />
        </mxCell>
        <mxCell id="fodWNSY7NhRpLWuz4Wl4-35" value="约束求解" style="sketch=0;pointerEvents=1;shadow=0;dashed=0;html=1;strokeColor=none;fillColor=#434445;aspect=fixed;labelPosition=center;verticalLabelPosition=bottom;verticalAlign=top;align=center;outlineConnect=0;shape=mxgraph.vvd.vrealize_automation;fontSize=15;" vertex="1" parent="1">
          <mxGeometry x="339" y="740" width="50" height="50" as="geometry" />
        </mxCell>
        <mxCell id="fodWNSY7NhRpLWuz4Wl4-41" value="" style="edgeStyle=orthogonalEdgeStyle;rounded=0;orthogonalLoop=1;jettySize=auto;html=1;fontSize=15;" edge="1" parent="1" source="fodWNSY7NhRpLWuz4Wl4-36" target="fodWNSY7NhRpLWuz4Wl4-40">
          <mxGeometry relative="1" as="geometry" />
        </mxCell>
        <mxCell id="fodWNSY7NhRpLWuz4Wl4-36" value="响应字典" style="sketch=0;pointerEvents=1;shadow=0;dashed=0;html=1;strokeColor=none;fillColor=#434445;aspect=fixed;labelPosition=center;verticalLabelPosition=bottom;verticalAlign=top;align=center;outlineConnect=0;shape=mxgraph.vvd.datastore;fontSize=15;" vertex="1" parent="1">
          <mxGeometry x="444.5" y="864.5" width="50" height="39" as="geometry" />
        </mxCell>
        <mxCell id="fodWNSY7NhRpLWuz4Wl4-42" style="edgeStyle=orthogonalEdgeStyle;rounded=0;orthogonalLoop=1;jettySize=auto;html=1;fontSize=15;dashed=1;" edge="1" parent="1" source="fodWNSY7NhRpLWuz4Wl4-40" target="fodWNSY7NhRpLWuz4Wl4-36">
          <mxGeometry relative="1" as="geometry">
            <mxPoint x="565" y="856.1666666666667" as="targetPoint" />
            <Array as="points">
              <mxPoint x="594" y="969" />
              <mxPoint x="594" y="887" />
            </Array>
          </mxGeometry>
        </mxCell>
        <mxCell id="fodWNSY7NhRpLWuz4Wl4-40" value="执行操作" style="sketch=0;pointerEvents=1;shadow=0;dashed=0;html=1;strokeColor=none;fillColor=#434445;aspect=fixed;labelPosition=center;verticalLabelPosition=bottom;verticalAlign=top;align=center;outlineConnect=0;shape=mxgraph.vvd.business_continuity_data_protection;fontSize=15;" vertex="1" parent="1">
          <mxGeometry x="444.5" y="947" width="50" height="43" as="geometry" />
        </mxCell>
        <mxCell id="fodWNSY7NhRpLWuz4Wl4-43" value="待处理操作" style="rounded=0;whiteSpace=wrap;html=1;fontSize=15;" vertex="1" parent="1">
          <mxGeometry x="193" y="1264" width="86" height="32" as="geometry" />
        </mxCell>
        <mxCell id="fodWNSY7NhRpLWuz4Wl4-44" value="参数间&lt;br&gt;依赖模型" style="sketch=0;pointerEvents=1;shadow=0;dashed=0;html=1;strokeColor=none;fillColor=#434445;aspect=fixed;labelPosition=center;verticalLabelPosition=bottom;verticalAlign=top;align=center;outlineConnect=0;shape=mxgraph.vvd.site_container;fontSize=15;" vertex="1" parent="1">
          <mxGeometry x="308" y="1226" width="49.5" height="50" as="geometry" />
        </mxCell>
        <mxCell id="fodWNSY7NhRpLWuz4Wl4-45" value="约束求解" style="sketch=0;pointerEvents=1;shadow=0;dashed=0;html=1;strokeColor=none;fillColor=#434445;aspect=fixed;labelPosition=center;verticalLabelPosition=bottom;verticalAlign=top;align=center;outlineConnect=0;shape=mxgraph.vvd.vrealize_automation;fontSize=15;" vertex="1" parent="1">
          <mxGeometry x="385" y="1296" width="50" height="50" as="geometry" />
        </mxCell>
        <mxCell id="fodWNSY7NhRpLWuz4Wl4-46" value="" style="shape=flexArrow;endArrow=classic;html=1;rounded=0;fontSize=15;" edge="1" parent="1">
          <mxGeometry width="50" height="50" relative="1" as="geometry">
            <mxPoint x="196" y="1321" as="sourcePoint" />
            <mxPoint x="386" y="1323" as="targetPoint" />
          </mxGeometry>
        </mxCell>
        <mxCell id="fodWNSY7NhRpLWuz4Wl4-47" value="+" style="text;html=1;strokeColor=none;fillColor=none;align=center;verticalAlign=middle;whiteSpace=wrap;rounded=0;fontSize=20;" vertex="1" parent="1">
          <mxGeometry x="261" y="1266" width="60" height="30" as="geometry" />
        </mxCell>
        <mxCell id="fodWNSY7NhRpLWuz4Wl4-48" value="响应字典" style="sketch=0;pointerEvents=1;shadow=0;dashed=0;html=1;strokeColor=none;fillColor=#434445;aspect=fixed;labelPosition=center;verticalLabelPosition=bottom;verticalAlign=top;align=center;outlineConnect=0;shape=mxgraph.vvd.datastore;fontSize=15;" vertex="1" parent="1">
          <mxGeometry x="433" y="1394" width="50" height="39" as="geometry" />
        </mxCell>
        <mxCell id="fodWNSY7NhRpLWuz4Wl4-49" value="" style="shape=flexArrow;endArrow=classic;html=1;rounded=0;fontSize=15;" edge="1" parent="1">
          <mxGeometry width="50" height="50" relative="1" as="geometry">
            <mxPoint x="411.9999999999999" y="1378" as="sourcePoint" />
            <mxPoint x="412" y="1483" as="targetPoint" />
          </mxGeometry>
        </mxCell>
        <mxCell id="fodWNSY7NhRpLWuz4Wl4-50" value="+" style="text;html=1;strokeColor=none;fillColor=none;align=center;verticalAlign=middle;whiteSpace=wrap;rounded=0;fontSize=20;" vertex="1" parent="1">
          <mxGeometry x="382" y="1411" width="60" height="30" as="geometry" />
        </mxCell>
        <mxCell id="fodWNSY7NhRpLWuz4Wl4-51" value="参数组合" style="rounded=0;whiteSpace=wrap;html=1;fontSize=15;" vertex="1" parent="1">
          <mxGeometry x="313" y="1411" width="86" height="32" as="geometry" />
        </mxCell>
        <mxCell id="fodWNSY7NhRpLWuz4Wl4-53" style="edgeStyle=orthogonalEdgeStyle;rounded=0;orthogonalLoop=1;jettySize=auto;html=1;fontSize=20;dashed=1;" edge="1" parent="1" source="fodWNSY7NhRpLWuz4Wl4-52" target="fodWNSY7NhRpLWuz4Wl4-48">
          <mxGeometry relative="1" as="geometry">
            <mxPoint x="526.8333333333335" y="1424.1666666666667" as="targetPoint" />
            <Array as="points">
              <mxPoint x="412" y="1533" />
              <mxPoint x="547" y="1533" />
              <mxPoint x="547" y="1424" />
            </Array>
          </mxGeometry>
        </mxCell>
        <mxCell id="fodWNSY7NhRpLWuz4Wl4-52" value="执行操作" style="sketch=0;pointerEvents=1;shadow=0;dashed=0;html=1;strokeColor=none;fillColor=#434445;aspect=fixed;labelPosition=center;verticalLabelPosition=bottom;verticalAlign=top;align=center;outlineConnect=0;shape=mxgraph.vvd.business_continuity_data_protection;fontSize=15;" vertex="1" parent="1">
          <mxGeometry x="387" y="1483" width="50" height="43" as="geometry" />
        </mxCell>
        <mxCell id="fodWNSY7NhRpLWuz4Wl4-54" value="响应信息" style="rounded=0;whiteSpace=wrap;html=1;fontSize=15;" vertex="1" parent="1">
          <mxGeometry x="450" y="1494" width="86" height="32" as="geometry" />
        </mxCell>
        <mxCell id="fodWNSY7NhRpLWuz4Wl4-55" value="" style="rounded=1;whiteSpace=wrap;html=1;fontSize=20;" vertex="1" parent="1">
          <mxGeometry x="62" y="2025.5" width="173" height="247" as="geometry" />
        </mxCell>
        <mxCell id="fodWNSY7NhRpLWuz4Wl4-56" value="操作" style="text;html=1;strokeColor=none;fillColor=none;align=center;verticalAlign=middle;whiteSpace=wrap;rounded=0;fontSize=20;" vertex="1" parent="1">
          <mxGeometry x="62" y="2028.5" width="60" height="30" as="geometry" />
        </mxCell>
        <mxCell id="fodWNSY7NhRpLWuz4Wl4-57" value="参数1及其描述文本" style="rounded=0;whiteSpace=wrap;html=1;fontSize=18;" vertex="1" parent="1">
          <mxGeometry x="65" y="2058.5" width="165" height="40" as="geometry" />
        </mxCell>
        <mxCell id="fodWNSY7NhRpLWuz4Wl4-58" value="参数2及其描述文本" style="rounded=0;whiteSpace=wrap;html=1;fontSize=18;" vertex="1" parent="1">
          <mxGeometry x="65" y="2108.5" width="165" height="40" as="geometry" />
        </mxCell>
        <mxCell id="fodWNSY7NhRpLWuz4Wl4-59" value="参数n及其描述文本" style="rounded=0;whiteSpace=wrap;html=1;fontSize=18;" vertex="1" parent="1">
          <mxGeometry x="67" y="2208.5" width="165" height="40" as="geometry" />
        </mxCell>
        <mxCell id="fodWNSY7NhRpLWuz4Wl4-60" value="..." style="rounded=0;whiteSpace=wrap;html=1;fontSize=18;" vertex="1" parent="1">
          <mxGeometry x="65.5" y="2158.5" width="165" height="40" as="geometry" />
        </mxCell>
        <mxCell id="fodWNSY7NhRpLWuz4Wl4-61" value="分类模型" style="sketch=0;pointerEvents=1;shadow=0;dashed=0;html=1;strokeColor=none;fillColor=#434445;aspect=fixed;labelPosition=center;verticalLabelPosition=bottom;verticalAlign=top;align=center;outlineConnect=0;shape=mxgraph.vvd.nfvo;fontSize=18;" vertex="1" parent="1">
          <mxGeometry x="267" y="2104.5" width="74" height="74" as="geometry" />
        </mxCell>
        <mxCell id="fodWNSY7NhRpLWuz4Wl4-62" value="" style="shape=flexArrow;endArrow=classic;html=1;rounded=0;fontSize=15;" edge="1" parent="1">
          <mxGeometry width="50" height="50" relative="1" as="geometry">
            <mxPoint x="233.2500000000001" y="2160.5" as="sourcePoint" />
            <mxPoint x="267" y="2161" as="targetPoint" />
          </mxGeometry>
        </mxCell>
        <mxCell id="fodWNSY7NhRpLWuz4Wl4-63" value="" style="shape=flexArrow;endArrow=classic;html=1;rounded=0;fontSize=15;" edge="1" parent="1">
          <mxGeometry width="50" height="50" relative="1" as="geometry">
            <mxPoint x="335" y="2162.5" as="sourcePoint" />
            <mxPoint x="368.75" y="2163" as="targetPoint" />
          </mxGeometry>
        </mxCell>
        <mxCell id="fodWNSY7NhRpLWuz4Wl4-64" value="" style="rounded=1;whiteSpace=wrap;html=1;fontSize=20;" vertex="1" parent="1">
          <mxGeometry x="370" y="2060" width="209" height="190" as="geometry" />
        </mxCell>
        <mxCell id="fodWNSY7NhRpLWuz4Wl4-65" value="操作" style="text;html=1;strokeColor=none;fillColor=none;align=center;verticalAlign=middle;whiteSpace=wrap;rounded=0;fontSize=20;" vertex="1" parent="1">
          <mxGeometry x="373" y="2068.5" width="60" height="30" as="geometry" />
        </mxCell>
        <mxCell id="fodWNSY7NhRpLWuz4Wl4-66" value="(参数1，参数n，Require)" style="text;html=1;strokeColor=none;fillColor=none;align=center;verticalAlign=middle;whiteSpace=wrap;rounded=0;fontSize=18;" vertex="1" parent="1">
          <mxGeometry x="371" y="2106.5" width="206" height="30" as="geometry" />
        </mxCell>
        <mxCell id="fodWNSY7NhRpLWuz4Wl4-67" value="(参数n，参数1，Require)" style="text;html=1;strokeColor=none;fillColor=none;align=center;verticalAlign=middle;whiteSpace=wrap;rounded=0;fontSize=18;" vertex="1" parent="1">
          <mxGeometry x="371" y="2196.5" width="206" height="30" as="geometry" />
        </mxCell>
        <mxCell id="fodWNSY7NhRpLWuz4Wl4-68" value="(...)" style="text;html=1;strokeColor=none;fillColor=none;align=center;verticalAlign=middle;whiteSpace=wrap;rounded=0;fontSize=18;" vertex="1" parent="1">
          <mxGeometry x="371" y="2146.5" width="206" height="30" as="geometry" />
        </mxCell>
        <mxCell id="fodWNSY7NhRpLWuz4Wl4-69" value="" style="endArrow=classic;html=1;rounded=0;fontSize=18;exitX=1;exitY=0.5;exitDx=0;exitDy=0;" edge="1" parent="1" source="fodWNSY7NhRpLWuz4Wl4-66">
          <mxGeometry width="50" height="50" relative="1" as="geometry">
            <mxPoint x="613" y="2102.5" as="sourcePoint" />
            <mxPoint x="593" y="2166" as="targetPoint" />
          </mxGeometry>
        </mxCell>
        <mxCell id="fodWNSY7NhRpLWuz4Wl4-70" value="" style="endArrow=classic;html=1;rounded=0;fontSize=18;exitX=1;exitY=0.5;exitDx=0;exitDy=0;" edge="1" parent="1" source="fodWNSY7NhRpLWuz4Wl4-67">
          <mxGeometry width="50" height="50" relative="1" as="geometry">
            <mxPoint x="587" y="2106.5" as="sourcePoint" />
            <mxPoint x="593" y="2169" as="targetPoint" />
          </mxGeometry>
        </mxCell>
        <mxCell id="fodWNSY7NhRpLWuz4Wl4-71" value="去除矛盾关系" style="sketch=0;pointerEvents=1;shadow=0;dashed=0;html=1;strokeColor=none;fillColor=#434445;aspect=fixed;labelPosition=center;verticalLabelPosition=bottom;verticalAlign=top;align=center;outlineConnect=0;shape=mxgraph.vvd.networks;fontSize=18;" vertex="1" parent="1">
          <mxGeometry x="601" y="2146.5" width="63.93" height="39" as="geometry" />
        </mxCell>
        <mxCell id="fodWNSY7NhRpLWuz4Wl4-73" value="" style="shape=flexArrow;endArrow=classic;html=1;rounded=0;fontSize=15;" edge="1" parent="1">
          <mxGeometry width="50" height="50" relative="1" as="geometry">
            <mxPoint x="661.0000000000001" y="2166" as="sourcePoint" />
            <mxPoint x="694.7500000000001" y="2166.5" as="targetPoint" />
          </mxGeometry>
        </mxCell>
        <mxCell id="fodWNSY7NhRpLWuz4Wl4-74" value="该操作参数间依赖模型" style="text;html=1;strokeColor=none;fillColor=none;align=center;verticalAlign=middle;whiteSpace=wrap;rounded=0;fontSize=18;" vertex="1" parent="1">
          <mxGeometry x="696.07" y="2151" width="98" height="30" as="geometry" />
        </mxCell>
        <mxCell id="fodWNSY7NhRpLWuz4Wl4-75" value="OpenAPI文档" style="sketch=0;pointerEvents=1;shadow=0;dashed=0;html=1;strokeColor=none;fillColor=#434445;aspect=fixed;labelPosition=center;verticalLabelPosition=bottom;verticalAlign=top;align=center;outlineConnect=0;shape=mxgraph.vvd.recovery_plan;fontSize=18;" vertex="1" parent="1">
          <mxGeometry x="135" y="987" width="36.5" height="50" as="geometry" />
        </mxCell>
        <mxCell id="fodWNSY7NhRpLWuz4Wl4-76" value="测试结果" style="sketch=0;pointerEvents=1;shadow=0;dashed=0;html=1;strokeColor=none;fillColor=#434445;aspect=fixed;labelPosition=center;verticalLabelPosition=bottom;verticalAlign=top;align=center;outlineConnect=0;shape=mxgraph.vvd.vrealize_log_insight;fontSize=18;" vertex="1" parent="1">
          <mxGeometry x="355" y="1029" width="50" height="50" as="geometry" />
        </mxCell>
      </root>
    </mxGraphModel>
  </diagram>
</mxfile>
